<svg width="79" height="70" viewBox="0 0 79 70" fill="none" xmlns="http://www.w3.org/2000/svg">
<g id="desktop" clip-path="url(#clip0_126_5087)">
<path id="Vector" d="M72.1875 0H6.5625C2.93945 0 0 2.93945 0 6.5625V50.3125C0 53.9355 2.93945 56.875 6.5625 56.875H32.8125L30.625 63.4375H20.7812C18.9629 63.4375 17.5 64.9004 17.5 66.7188C17.5 68.5371 18.9629 70 20.7812 70H57.9688C59.7871 70 61.25 68.5371 61.25 66.7188C61.25 64.9004 59.7871 63.4375 57.9688 63.4375H48.125L45.9375 56.875H72.1875C75.8105 56.875 78.75 53.9355 78.75 50.3125V6.5625C78.75 2.93945 75.8105 0 72.1875 0ZM70 48.125H8.75V8.75H70V48.125Z" fill="#12908D"/>
</g>
<defs>
<clipPath id="clip0_126_5087">
<rect width="78.75" height="70" fill="white"/>
</clipPath>
</defs>
</svg>
