<svg width="88" height="70" viewBox="0 0 88 70" fill="none" xmlns="http://www.w3.org/2000/svg">
<g id="laptop" clip-path="url(#clip0_126_5085)">
<path id="Vector" d="M85.3125 56.875H52.1637C52.0625 59.5834 50.1525 61.25 47.6875 61.25H39.375C36.8197 61.25 34.8605 58.8615 34.8947 56.875H2.1875C0.984375 56.875 0 57.8594 0 59.0625V61.25C0 66.0625 3.9375 70 8.75 70H78.75C83.5625 70 87.5 66.0625 87.5 61.25V59.0625C87.5 57.8594 86.5156 56.875 85.3125 56.875ZM78.75 6.5625C78.75 2.95312 75.7969 0 72.1875 0H15.3125C11.7031 0 8.75 2.95312 8.75 6.5625V52.5H78.75V6.5625ZM70 43.75H17.5V8.75H70V43.75Z" fill="#12C2E9"/>
</g>
<defs>
<clipPath id="clip0_126_5085">
<rect width="87.5" height="70" fill="white"/>
</clipPath>
</defs>
</svg>
