<svg width="88" height="70" viewBox="0 0 88 70" fill="none" xmlns="http://www.w3.org/2000/svg">
<g id="laptop-house" clip-path="url(#clip0_126_5083)">
<path id="Vector" d="M37.1875 39.375H28.4375C27.8573 39.375 27.3009 39.1445 26.8907 38.7343C26.4805 38.3241 26.25 37.7677 26.25 37.1875V28.4375C26.25 27.8573 26.4805 27.3009 26.8907 26.8907C27.3009 26.4805 27.8573 26.25 28.4375 26.25H37.1875C37.7677 26.25 38.3241 26.4805 38.7343 26.8907C39.1445 27.3009 39.375 27.8573 39.375 28.4375V33.5125C40.8939 31.7516 43.0664 30.625 45.5 30.625H64.2223L65.1314 29.5955C65.4276 29.2263 65.6003 28.7734 65.625 28.3008C65.594 27.7539 65.3629 27.2376 64.9756 26.8502L56.875 19.6875V6.5625C56.875 5.98234 56.6445 5.42594 56.2343 5.0157C55.8241 4.60547 55.2677 4.375 54.6875 4.375H50.3125C49.7323 4.375 49.1759 4.60547 48.7657 5.0157C48.3555 5.42594 48.125 5.98234 48.125 6.5625V11.9355L36.0254 1.21953C35.2734 0.546875 33.8311 0 32.8193 0C31.8076 0 30.368 0.546875 29.6105 1.21953L0.653516 26.8543C0.263912 27.2388 0.0310121 27.7543 0 28.3008C0.0236163 28.7689 0.193355 29.2179 0.485352 29.5846L3.0543 32.498C3.44207 32.8894 3.9616 33.1223 4.51172 33.1516C4.97622 33.1283 5.4222 32.9621 5.78867 32.6758L8.75 30.0617V52.5C8.75 53.6603 9.21094 54.7731 10.0314 55.5936C10.8519 56.4141 11.9647 56.875 13.125 56.875H37.1875V39.375ZM86.0412 61.25H80.9375V39.375C80.9375 36.9592 79.1752 35 77 35H45.5C43.3248 35 41.5625 36.9592 41.5625 39.375V61.25H36.4588C36.0719 61.25 35.7008 61.4037 35.4273 61.6773C35.1537 61.9508 35 62.3219 35 62.7088V64.1662C35.0054 65.7101 35.6204 67.1894 36.7113 68.282C37.8021 69.3746 39.2803 69.9921 40.8242 70H81.6758C83.2197 69.9921 84.6979 69.3746 85.7887 68.282C86.8796 67.1894 87.4946 65.7101 87.5 64.1662V62.7088C87.5 62.3219 87.3463 61.9508 87.0727 61.6773C86.7992 61.4037 86.4281 61.25 86.0412 61.25ZM74.375 61.25H48.125V41.5625H74.375V61.25Z" fill="#D3DE16"/>
</g>
<defs>
<clipPath id="clip0_126_5083">
<rect width="87.5" height="70" fill="white"/>
</clipPath>
</defs>
</svg>
