<svg width="44" height="70" viewBox="0 0 44 70" fill="none" xmlns="http://www.w3.org/2000/svg">
<g id="mobile-alt" clip-path="url(#clip0_126_5089)">
<path id="Vector" d="M37.1875 0H6.5625C2.93945 0 0 2.93945 0 6.5625V63.4375C0 67.0605 2.93945 70 6.5625 70H37.1875C40.8105 70 43.75 67.0605 43.75 63.4375V6.5625C43.75 2.93945 40.8105 0 37.1875 0ZM21.875 65.625C19.4551 65.625 17.5 63.6699 17.5 61.25C17.5 58.8301 19.4551 56.875 21.875 56.875C24.2949 56.875 26.25 58.8301 26.25 61.25C26.25 63.6699 24.2949 65.625 21.875 65.625ZM37.1875 50.8594C37.1875 51.7617 36.4492 52.5 35.5469 52.5H8.20312C7.30078 52.5 6.5625 51.7617 6.5625 50.8594V8.20312C6.5625 7.30078 7.30078 6.5625 8.20312 6.5625H35.5469C36.4492 6.5625 37.1875 7.30078 37.1875 8.20312V50.8594Z" fill="#FF7B17"/>
</g>
<defs>
<clipPath id="clip0_126_5089">
<rect width="43.75" height="70" fill="white"/>
</clipPath>
</defs>
</svg>
